<?xml version="1.0" encoding="utf-8"?>
<!-- Generator: Adobe Illustrator 26.0.2, SVG Export Plug-In . SVG Version: 6.00 Build 0)  -->
<svg version="1.1" id="Layer_1" xmlns="http://www.w3.org/2000/svg" xmlns:xlink="http://www.w3.org/1999/xlink" x="0px" y="0px"
	 viewBox="0 0 1025.5 875.9" style="enable-background:new 0 0 1025.5 875.9;" xml:space="preserve">
<style type="text/css">
	.st0{display:none;}
	.st1{display:inline;fill:#F4C6E6;}
</style>
<g id="Layer_1_00000096756071571563682700000001536201469673237398_" class="st0">
	<rect x="-445.8" y="-76.7" class="st1" width="1920" height="1080"/>
</g>
<g id="Layer_2_00000161616285856745441090000016919588789075343033_">
	<path d="M227.9,870.8c-56.5-0.5-90.8-38.8-90.8-89.9c1.5-53.5,24.5-91.8,75.1-98.7c-28.5-12.3-43.7-32.4-43.7-62.4
		c0.5-37.3,25.5-60.9,61.9-60.9c29,0.5,50.1,18.7,50.1,46.2L280,611c-0.5,4.4-2,7.4-7.4,7.4c-4.9,0-7.4-3-7.4-6.4
		c1-9.3,7.9-7.9,7.9-11.8c-1-18.7-20.6-33.4-36.8-33.4c-26.5,0-39.8,27-40.8,58.4c0,25.5,10.8,45.2,35.8,56c2,1,2.5,2.5,2.5,3.9
		s-1.5,3.4-3.9,3.4h-2c-43.2,0-55.5,44.7-59.4,81l-0.5,12.3c0,35.3,13.8,79,53.5,81.5l7.4,0.5c48.6,0,80.5-29,80.5-75.1
		c0-23.6-8.8-60.4-35.3-60.4c-3,0-5.9,0.5-9.3,1.5c-18.2,6.4-34.9,15.2-34.9,34.9v4.4c0.5,3,6.4,3.4,7.4,8.3c0,3.9-3,6.4-6.4,6.9
		c-2.5,0-4.9-2.5-5.9-4.4c-2-5.9-2.5-11.3-2.5-16.2c0-29.5,31.4-38.3,56.5-45.7c28-7.4,57.9-21.6,57.9-49.6
		c0-15.7-9.3-30.9-24.5-30.9L308,638c-2.5,0-2.5,8.3-8.8,8.8c-3,0-5.9-2-6.4-5.9c0-8.8,12.8-10.8,19.6-10.8
		c19.2,0,31.9,18.2,31.9,37.8c0,9.3-3,19.2-9.8,27.5c-12.3,15.7-30,22.6-48.1,28c18.2,7.9,30.4,35.3,30.4,64.3
		c0,39.8-23.6,83-87.9,83L227.9,870.8L227.9,870.8z"/>
	<g>
		<path d="M854.3,623.8c-20.3-13.6-26.2-53.3-26.2-102.7c0-96.8,24.2-229.5,24.2-270.2c0-6.8,0-10.6-1.9-11.6
			c-62,12.6-107.5,242.1-120.1,303.1c-3.9,18.4-5.8,32.9-28.1,32.9c-12.6,0-26.2-6.8-28.1-21.3c-1.9-18.4-3.9-62-3.9-105.6
			c0-42.6,1.9-86.2,4.8-104.6c1.9-15.5,16.5-23.2,31-23.2h2.9c13.6,1,27.1,9.7,27.1,25.2l-5.8,127.8
			c20.3-89.1,63.9-249.8,125.9-249.8h1.9c15.5,1,31,12.6,36.8,28.1c4.8,14.5,6.8,34.9,6.8,59.1c0,75.5-18.4,185.9-18.4,251.8
			c0,31,3.9,52.3,17.4,52.3l4.8-1c32-9.7,79.4-179.2,101.7-243.1c1-2.9,3.9-4.8,6.8-4.8c0,0,6.8,0,7.8,6.8l-1,2.9
			c-24.2,68.8-70.7,240.2-111.4,251.8c-4.8,1.9-12.6,1.9-21.3,1.9C875.6,629.6,861.1,627.6,854.3,623.8z"/>
		<path d="M528.6,559.8C478.2,548.2,456,491.1,456,432c0-64.9,26.2-132.7,67.8-149.1c8.7-2.9,18.4-4.8,28.1-4.8l14.5,1
			c26.1,2.9,37.8,21.3,37.8,42.6c0,6.8-1,12.6-2.9,18.4c-6.8,25.2-29,49.4-55.2,49.4c-5.8,0-12.6-1.9-19.4-4.8
			c-2.9,13.6-8.7,54.2-8.7,91s5.8,70.7,27.1,72.6h4.8c29,0,51.3-25.2,73.6-61c21.3-35.8,39.7-79.4,53.3-116.2c1-2.9,3.9-4.8,6.8-4.8
			l3.9,1c2.9,1,2.9,3.9,2.9,5.8v2.9c-10.7,29-29.1,77.5-54.2,118.2C613.9,531,586.8,561,554.9,563
			C546,562.7,537.3,561.8,528.6,559.8z M587.7,338.1c1.9-5.8,1.9-10.6,1.9-15.5c0-14.5-6.8-26.1-24.2-29
			c-12.6,1-26.2,33.9-35.8,76.5c5.8,3.9,11.6,4.8,16.5,4.8C564.4,374.9,580.9,356.5,587.7,338.1z"/>
		<path d="M43.4,870.8c-14.5,0-28.1-4.8-28.1-18.4c-7.7-84.3-11.6-311-11.6-395.2c0-116.2,7.8-229.5,24.2-337
			c1-9.7,17.4-17.4,34.9-17.4c14.5,0,33.9,3.9,33.9,20.3v4.8C88,171.5,81.2,271.3,78.3,335.2c29-152,84.2-328.3,167.5-328.3h15.5
			c32.9,0,60,3.9,80.4,35.8c22.3,35.8,32,86.2,32,140.4c0,70.7-16.5,147.2-42.6,205.3c51.3-2.9,103.6-6.8,135.6-21.3l2.9-1
			c3.9,0,6.8,3.9,6.8,7.8c0,2.9-1,4.8-3.9,6.8c-35.8,16.5-93,19.4-149.1,23.2c-18.4,34.9-41.6,64.9-68.8,85.2
			c-21.3,14.5-59.1,15.5-71.7,15.5c-29,0-44.5-17.4-44.5-39.7c0-18.4,10.7-38.7,37.8-52.3c19.4-10.6,48.4-15.5,81.3-18.4
			c23.2-64.9,38.7-159.8,38.7-239.2c0-62-9.7-134.6-51.3-134.6c-88.2,2-146.3,263.4-170.5,415.5l-1,101.7c0,56.2,1,253.8,4.8,309.9
			c0,13.6-15.5,22.3-31,23.2L43.4,870.8L43.4,870.8z M227.4,452.3c8.7-11.6,16.5-26.1,23.2-43.6c-22.3,2.9-48.4,6.8-67.8,16.5
			c-18.4,9.7-31,24.2-31,39.7c0,14.5,10.7,24.2,29,25.2C197.4,488.2,216.8,465.9,227.4,452.3z"/>
	</g>
	<g>
		<path d="M531.2,715c0,45-28.4,73.1-74.8,73.1h-52.9v82.6h-15.7V642.2h68.5C502.8,642.2,531.2,670.3,531.2,715z M515.2,715.4
			c0-36.9-21.5-58.4-58.8-58.4h-52.9v116.5h52.9C493.7,773.5,515.2,751.9,515.2,715.4z"/>
		<path d="M698.3,870.1v0.7h-16.7l-24.8-63.3H550.5l-25.1,63.3H509v-0.7l91.7-228.5h6.5L698.3,870.1z M556,792.7h95.3l-47.3-123
			L556,792.7z"/>
		<path d="M816.5,855.7v15h-112V642.2h15.7v213.5H816.5z"/>
		<path d="M1022.5,641.9v228.8h-15.7V777l0.3-96l-82.3,121.4h-2L841,681.7v189h-15.7V641.9h6.2l92.7,135.8l92.4-135.8H1022.5z"/>
	</g>
</g>
</svg>
