<?xml version="1.0" standalone="no"?>
<!DOCTYPE svg PUBLIC "-//W3C//DTD SVG 20010904//EN"
 "http://www.w3.org/TR/2001/REC-SVG-20010904/DTD/svg10.dtd">
<svg version="1.0" xmlns="http://www.w3.org/2000/svg"
 width="1026.000000pt" height="1026.000000pt" viewBox="0 0 1026.000000 1026.000000"
 preserveAspectRatio="xMidYMid meet">
<metadata>
Created by potrace 1.14, written by Peter Selinger 2001-2017
</metadata>
<g transform="translate(0.000000,1026.000000) scale(0.100000,-0.100000)"
fill="#000000" stroke="none">
<path d="M2537 9443 c-1 0 -40 -2 -87 -4 -47 -1 -95 -6 -108 -11 -13 -4 -37
-10 -53 -13 -39 -7 -154 -63 -216 -106 -62 -43 -202 -179 -256 -249 -23 -30
-50 -64 -59 -74 -10 -11 -18 -26 -18 -33 0 -7 -3 -13 -8 -13 -4 0 -27 -33 -52
-72 -24 -40 -47 -75 -50 -78 -7 -7 -31 -52 -109 -205 -82 -162 -118 -244 -194
-435 -53 -136 -98 -255 -101 -273 -2 -6 -6 -19 -9 -27 -16 -38 -128 -391 -142
-450 -2 -8 -11 -40 -20 -70 -9 -30 -18 -66 -21 -80 -2 -14 -11 -42 -19 -62 -8
-21 -13 -38 -10 -38 2 0 0 -11 -5 -25 -5 -14 -12 -36 -14 -48 -2 -12 -9 -42
-16 -67 -7 -25 -13 -52 -15 -60 -2 -8 -8 -33 -14 -55 -6 -22 -12 -51 -15 -65
-2 -14 -5 -25 -6 -25 -1 0 -4 -13 -6 -30 -3 -16 -9 -43 -14 -60 -5 -16 -12
-41 -14 -55 -15 -68 -27 -127 -30 -145 -2 -11 -12 -54 -21 -95 -9 -41 -18 -84
-20 -95 -1 -11 -6 -38 -10 -60 -8 -49 -24 -69 -18 -23 3 30 6 75 18 313 6 126
22 377 30 475 4 36 8 94 11 130 22 305 29 375 34 375 0 0 3 29 5 65 6 80 11
135 19 197 4 27 9 66 11 88 4 36 14 112 30 220 4 22 10 54 14 70 4 17 7 60 6
96 -1 51 -6 73 -24 98 -39 54 -116 94 -202 104 -20 3 -42 8 -48 11 -6 4 -11 2
-11 -4 0 -6 -5 -8 -12 -4 -35 22 -183 -3 -268 -44 -86 -42 -114 -76 -126 -157
-3 -27 -8 -59 -11 -70 -2 -11 -6 -36 -8 -55 -2 -19 -6 -48 -9 -65 -2 -16 -8
-55 -11 -85 -4 -30 -9 -63 -10 -72 -2 -9 -6 -43 -10 -75 -3 -32 -8 -71 -10
-88 -12 -98 -17 -134 -20 -165 -2 -19 -6 -53 -9 -75 -12 -99 -18 -153 -31
-295 -4 -41 -9 -88 -10 -105 -2 -16 -6 -66 -10 -110 -3 -44 -8 -96 -10 -115
-5 -50 -16 -195 -20 -265 -2 -33 -7 -98 -10 -145 -3 -47 -7 -123 -10 -170 -2
-47 -6 -139 -10 -205 -13 -264 -15 -329 -21 -550 -3 -126 -6 -249 -7 -272 -2
-24 1 -43 5 -43 3 0 3 -12 0 -27 -9 -35 -8 -726 2 -741 3 -6 2 -13 -4 -17 -6
-4 -8 -10 -5 -15 4 -6 6 -44 5 -110 -1 -70 18 -1081 26 -1330 2 -91 7 -255 10
-365 2 -110 6 -217 8 -238 1 -21 -1 -40 -6 -43 -5 -3 -5 -11 -1 -17 4 -7 8
-43 9 -82 3 -121 23 -608 29 -704 2 -36 7 -120 10 -186 3 -66 8 -139 10 -162
2 -23 7 -84 10 -135 4 -51 8 -102 10 -113 18 -108 105 -159 275 -160 94 0 220
26 220 47 0 4 6 8 13 8 19 0 83 64 103 102 16 31 18 65 9 228 -2 36 -7 160
-10 275 -4 116 -8 221 -9 235 -1 14 3 31 8 37 4 7 5 13 0 13 -5 0 -10 69 -11
153 0 83 -4 391 -8 682 -14 999 -8 2536 10 2635 10 55 44 252 50 290 3 19 10
58 15 85 5 28 12 64 15 80 3 17 7 41 10 55 2 13 7 42 11 64 3 22 8 44 11 49 3
4 7 27 9 50 3 23 9 58 14 77 5 19 12 53 16 75 3 22 8 44 11 48 2 4 6 22 9 40
6 47 62 311 90 422 3 11 7 31 10 45 3 14 19 81 36 149 16 69 32 134 35 145 8
38 11 51 13 51 2 0 5 12 13 50 3 11 10 40 17 65 7 25 14 53 16 63 1 10 8 32
13 50 6 18 20 66 31 107 12 41 24 82 27 90 3 8 8 24 10 34 4 22 81 273 91 296
3 8 7 20 7 25 1 6 5 17 8 25 4 8 16 43 27 78 11 35 23 69 27 75 4 7 9 20 10
30 2 10 12 37 22 60 11 24 23 56 27 72 4 17 11 35 16 41 5 7 10 20 12 30 2 11
16 45 30 76 14 31 26 59 26 61 0 3 12 31 27 63 15 33 27 61 28 64 1 3 20 44
43 93 23 48 41 90 41 94 0 3 3 9 8 12 5 3 24 35 42 71 19 36 37 67 40 70 3 3
13 19 21 35 8 17 17 32 20 35 3 3 25 34 49 70 70 103 225 280 245 280 3 0 16
11 30 24 67 61 225 122 311 120 179 -6 291 -107 386 -346 33 -84 76 -255 86
-338 10 -92 11 -105 13 -105 1 0 3 -13 5 -30 22 -173 35 -527 25 -667 -3 -37
-2 -68 3 -68 4 0 6 -4 3 -9 -3 -5 -8 -51 -11 -102 -14 -274 -46 -591 -81 -809
-4 -25 -8 -56 -9 -70 -1 -14 -5 -38 -9 -55 -3 -16 -8 -43 -11 -60 -5 -35 -13
-82 -20 -111 -3 -12 -7 -39 -11 -60 -3 -21 -15 -82 -26 -134 -11 -52 -22 -106
-25 -120 -2 -13 -8 -29 -14 -36 -5 -6 -7 -13 -4 -15 7 -8 -70 -299 -120 -456
l-46 -141 -37 -6 c-20 -4 -62 -9 -92 -11 -30 -3 -73 -7 -95 -10 -37 -6 -98
-16 -225 -39 -81 -14 -214 -53 -270 -79 -25 -11 -51 -20 -57 -20 -7 0 -13 -4
-13 -8 0 -4 -10 -11 -22 -15 -78 -24 -244 -162 -297 -246 -85 -136 -109 -298
-61 -423 6 -16 10 -30 8 -31 -7 -2 57 -81 91 -112 30 -28 82 -63 101 -67 3 -1
12 -5 20 -8 44 -20 156 -34 255 -31 106 2 213 11 258 20 12 2 40 6 62 8 22 2
54 10 70 16 17 6 30 10 30 9 0 -1 27 6 59 15 132 39 225 103 386 265 135 137
208 225 307 372 36 54 165 269 178 296 0 1 34 4 75 7 41 3 107 8 145 11 39 4
102 8 140 10 68 4 116 8 240 21 33 3 76 7 95 9 83 7 159 16 220 27 36 6 77 11
93 12 15 0 27 3 27 6 0 3 12 6 28 7 15 0 65 11 112 23 47 12 92 23 100 25 8 2
30 9 49 14 35 11 56 6 45 -10 -9 -15 -15 -56 -31 -219 -13 -135 -6 -491 11
-540 3 -8 7 -31 9 -50 3 -19 12 -66 21 -105 80 -341 244 -593 471 -724 40 -23
127 -60 155 -66 8 -2 15 -4 15 -5 0 -3 84 -20 140 -28 67 -9 213 -8 250 2 17
4 36 8 43 8 6 1 12 5 12 10 0 4 3 7 8 6 21 -6 169 75 230 126 44 36 185 180
217 220 71 91 159 218 216 316 34 58 69 116 78 130 30 48 168 326 204 410 20
47 40 86 44 87 4 2 8 -95 9 -215 2 -389 20 -861 39 -1025 18 -158 235 -259
402 -187 46 19 104 79 113 115 1 6 4 15 6 20 8 21 56 231 60 259 2 16 15 81
29 145 13 64 27 127 29 141 3 14 5 25 6 25 1 0 3 7 5 15 1 8 10 49 19 91 10
42 19 84 21 95 2 10 4 19 5 19 1 0 3 9 5 20 1 11 12 58 23 105 12 47 23 97 26
110 2 14 16 70 30 125 15 55 28 109 30 120 2 11 10 40 17 65 7 25 13 50 15 56
1 6 10 38 19 70 9 33 19 70 22 83 2 13 8 32 14 43 5 10 8 18 5 18 -3 0 3 24
13 53 10 28 19 57 20 62 1 6 13 48 28 95 14 47 26 91 26 98 0 6 5 12 10 12 6
0 7 3 4 7 -4 3 -2 12 4 20 6 7 9 13 6 13 -3 0 14 57 39 128 25 70 47 132 48
137 4 13 9 27 68 170 51 125 51 126 63 163 4 12 12 22 18 22 6 0 8 3 5 6 -5 5
53 124 110 226 43 76 133 199 184 250 56 57 142 116 177 123 12 2 25 6 31 10
19 12 28 -34 25 -140 -2 -60 -6 -132 -9 -160 -3 -27 -8 -81 -11 -120 -3 -38
-7 -79 -9 -90 -2 -11 -7 -51 -10 -90 -4 -38 -9 -81 -11 -95 -2 -14 -7 -50 -10
-80 -4 -30 -9 -68 -11 -85 -2 -16 -6 -55 -9 -85 -3 -30 -8 -66 -10 -80 -3 -14
-7 -45 -10 -70 -3 -25 -7 -61 -10 -80 -5 -33 -10 -79 -20 -180 -3 -25 -7 -61
-10 -80 -3 -19 -8 -62 -11 -95 -3 -33 -8 -71 -9 -85 -2 -14 -6 -52 -10 -85 -3
-33 -8 -78 -11 -99 -2 -22 -7 -74 -10 -115 -3 -42 -7 -92 -9 -111 -2 -19 -7
-75 -10 -125 -4 -49 -8 -110 -10 -135 -25 -335 -25 -693 0 -960 33 -344 142
-572 299 -621 79 -24 142 -31 291 -34 196 -3 251 17 349 124 17 19 37 40 44
47 6 7 12 17 12 23 0 6 5 11 10 11 6 0 10 7 10 15 0 8 4 15 9 15 5 0 13 9 16
20 3 11 12 26 20 33 22 23 149 276 206 414 8 18 17 33 20 33 3 0 6 6 6 13 0
10 38 109 108 282 4 11 9 25 11 30 1 6 17 48 34 95 18 47 89 254 157 460 69
206 128 382 131 390 3 8 7 20 7 25 1 6 5 17 8 25 3 8 17 53 32 100 15 47 29
92 32 100 3 8 7 20 9 25 1 6 23 71 48 145 26 74 44 145 41 156 -6 26 -47 55
-72 51 -35 -6 -63 -28 -69 -55 -4 -15 -11 -33 -17 -39 -5 -7 -6 -13 -2 -13 4
0 3 -6 -3 -12 -6 -7 -11 -17 -11 -23 -1 -10 -37 -125 -48 -155 -3 -8 -7 -19
-9 -25 -1 -5 -13 -44 -27 -85 -13 -41 -64 -196 -111 -345 -48 -148 -96 -292
-107 -319 -10 -27 -19 -52 -19 -57 0 -4 -4 -18 -9 -31 -5 -13 -9 -25 -9 -28
-1 -5 -65 -184 -130 -365 -38 -105 -102 -267 -122 -310 -5 -11 -19 -45 -31
-75 -37 -90 -160 -332 -180 -354 -11 -11 -19 -24 -19 -28 0 -11 -6 -19 -61
-81 -49 -55 -97 -82 -152 -86 -86 -6 -148 116 -163 323 -14 184 -3 497 31 876
2 19 6 69 9 110 4 41 9 89 11 105 5 36 14 122 19 185 8 87 18 185 22 220 2 19
7 66 10 104 3 38 7 78 10 90 2 11 7 57 10 101 3 44 7 94 9 110 1 17 6 73 10
125 4 52 9 111 11 130 25 220 24 918 0 959 -2 3 -7 27 -10 52 -15 113 -52 199
-117 273 -90 102 -209 153 -334 143 -135 -11 -247 -82 -394 -252 -62 -72 -186
-274 -248 -405 -37 -78 -92 -197 -103 -225 -4 -11 -16 -40 -26 -65 -11 -24
-19 -47 -20 -50 0 -3 -8 -22 -17 -44 -9 -21 -17 -40 -17 -42 0 -1 -5 -15 -12
-31 -6 -15 -12 -32 -14 -38 -1 -5 -25 -77 -54 -160 -45 -131 -116 -362 -125
-405 -2 -8 -4 -15 -5 -15 -1 0 -3 -7 -5 -15 -2 -8 -18 -67 -35 -130 -37 -134
-79 -296 -86 -325 -2 -11 -13 -56 -23 -100 -11 -44 -23 -96 -26 -115 -12 -71
-16 -40 -10 95 3 77 8 187 10 245 2 58 7 157 9 220 3 63 8 169 11 235 3 66 8
167 11 225 11 188 8 236 -16 283 -49 94 -155 152 -270 148 -92 -2 -114 -7
-169 -35 -44 -21 -133 -96 -116 -96 3 0 -1 -13 -9 -29 -23 -44 -37 -147 -52
-386 -6 -93 -8 -103 -19 -130 -4 -11 -23 -56 -40 -100 -99 -246 -272 -621
-331 -716 -13 -20 -20 -40 -17 -43 4 -3 1 -6 -5 -6 -7 0 -12 -4 -12 -10 0 -11
-92 -164 -142 -237 -83 -120 -166 -222 -243 -296 -56 -53 -165 -133 -165 -120
0 4 -4 3 -8 -2 -9 -12 -52 -35 -72 -38 -8 -2 -19 -5 -25 -9 -16 -10 -106 -21
-165 -21 -162 1 -254 155 -287 478 -7 73 -7 415 0 520 14 209 21 290 31 340 2
11 7 47 11 80 4 32 9 68 11 80 2 11 6 36 9 55 12 87 2 82 110 52 138 -37 266
-6 407 100 52 38 139 145 180 221 75 136 109 312 84 430 -3 15 -8 39 -11 53
-23 110 -129 217 -260 262 -94 32 -311 37 -429 10 -85 -20 -193 -69 -242 -109
-190 -159 -318 -362 -414 -658 l-37 -115 -93 -33 c-51 -17 -95 -32 -99 -31 -3
0 -8 -1 -11 -2 -25 -9 -271 -58 -330 -65 -30 -3 -66 -8 -80 -9 -86 -13 -111
-16 -165 -20 -33 -3 -91 -9 -130 -12 -38 -4 -97 -8 -130 -10 -33 -1 -60 -3
-60 -4 0 -1 -27 -3 -60 -5 -176 -10 -176 -10 -157 28 20 41 72 165 72 173 0 4
12 36 26 71 38 95 134 411 150 493 3 14 7 33 10 42 3 9 7 26 9 37 3 12 7 29 9
39 15 61 65 326 71 372 3 30 8 62 11 71 2 9 7 36 9 60 2 24 7 64 10 89 20 147
29 332 29 560 1 252 -11 450 -30 540 -3 14 -8 41 -10 60 -6 53 -11 82 -18 110
-3 14 -8 36 -10 50 -13 66 -17 87 -26 115 -49 165 -65 216 -82 255 -11 24 -21
49 -22 55 -4 21 -62 133 -112 215 -55 89 -135 180 -194 220 -19 13 -37 27 -40
30 -3 3 -27 16 -55 29 -27 13 -57 27 -65 31 -22 10 -144 40 -188 45 -70 9
-341 23 -345 18z m3165 -2880 c38 -6 114 -56 139 -91 45 -65 57 -109 54 -207
-3 -111 -6 -121 -50 -210 -57 -114 -149 -211 -243 -257 -83 -41 -182 -46 -255
-14 -43 19 -48 24 -42 46 3 14 8 38 11 54 29 150 148 478 204 566 53 82 126
140 155 122 5 -4 18 -8 27 -9z m-3212 -1183 c-11 -22 -17 -40 -13 -40 5 0 3
-4 -3 -8 -5 -4 -18 -28 -28 -55 -10 -26 -23 -53 -29 -60 -7 -6 -20 -30 -30
-52 -17 -36 -103 -172 -117 -185 -3 -3 -23 -27 -45 -55 -120 -149 -266 -270
-365 -303 -64 -21 -178 1 -240 46 -73 54 -93 92 -96 185 -5 154 102 295 307
404 52 28 221 87 278 98 14 3 68 13 120 24 53 11 123 23 156 27 33 3 61 7 62
8 1 1 16 3 33 4 l31 2 -21 -40z"/>
<path d="M2146 3903 c-38 -8 -82 -21 -97 -29 -16 -8 -35 -14 -44 -14 -8 0 -15
-4 -15 -9 0 -5 -13 -14 -28 -20 -16 -7 -43 -25 -61 -42 -18 -16 -36 -29 -42
-29 -5 0 -9 -5 -9 -10 0 -6 -11 -20 -25 -32 -14 -12 -25 -28 -25 -35 0 -7 -4
-13 -9 -13 -9 0 -69 -125 -77 -162 -25 -116 -30 -157 -27 -231 9 -215 103
-385 283 -507 30 -20 65 -40 78 -44 12 -4 22 -12 22 -17 0 -6 4 -8 9 -5 5 3
15 -1 22 -10 7 -8 8 -14 3 -13 -21 6 -174 -36 -234 -64 -129 -60 -218 -131
-299 -239 -85 -114 -157 -295 -177 -443 -2 -16 -6 -43 -10 -59 -12 -56 -12
-263 1 -341 39 -242 163 -446 348 -574 57 -39 200 -108 239 -115 15 -2 32 -7
37 -10 5 -4 22 -8 38 -10 15 -3 48 -8 73 -12 90 -16 324 -9 418 12 93 20 239
80 275 111 9 9 17 13 17 10 0 -7 23 11 92 72 57 50 127 147 166 230 19 41 35
79 36 85 2 6 8 30 15 53 17 63 23 116 26 239 3 99 -1 145 -20 222 -3 12 -7 32
-10 43 -17 81 -57 168 -111 244 -46 65 -68 86 -123 119 -30 17 -33 21 -16 24
11 2 24 8 30 13 5 5 15 9 21 9 7 0 25 5 41 12 15 6 33 12 38 13 12 3 133 62
160 78 27 16 138 109 147 122 3 5 15 20 26 32 10 13 30 44 43 70 13 27 27 50
32 51 4 2 5 7 2 12 -3 4 1 27 8 51 40 135 -29 334 -144 414 -57 40 -100 52
-174 49 -74 -2 -98 -8 -138 -32 -41 -23 -56 -62 -37 -97 26 -48 87 -40 111 14
42 94 217 34 282 -97 35 -67 46 -204 23 -267 -37 -101 -86 -163 -180 -230
-105 -74 -219 -120 -466 -190 -73 -21 -97 -28 -105 -33 -5 -4 -17 -8 -26 -9
-24 -4 -160 -75 -204 -107 -117 -84 -168 -223 -141 -376 4 -19 7 -41 8 -48 2
-25 57 -72 76 -65 62 22 70 77 16 118 l-36 28 4 66 c11 150 104 241 333 327
111 41 228 13 306 -73 62 -69 125 -227 145 -364 23 -160 0 -354 -59 -479 -11
-25 -20 -48 -19 -52 1 -5 -2 -8 -7 -8 -5 0 -14 -13 -21 -29 -15 -36 -123 -148
-181 -188 -75 -51 -211 -108 -280 -117 -19 -3 -34 -5 -34 -6 0 -13 -240 -20
-307 -9 -258 42 -428 260 -484 619 -10 61 -10 313 0 375 4 28 9 66 12 85 8 49
42 186 61 240 21 61 96 210 105 210 5 0 8 4 8 10 0 5 24 34 53 63 72 71 172
124 250 130 9 1 17 4 17 7 0 3 24 5 53 4 61 -1 87 9 82 33 -2 10 -4 21 -4 25
-1 4 -24 19 -53 33 -67 34 -137 85 -181 134 -135 150 -175 392 -106 643 43
153 122 264 228 316 49 23 68 27 146 27 83 0 95 -3 154 -35 71 -38 154 -116
175 -164 48 -111 48 -129 1 -172 -23 -21 -36 -43 -39 -65 -5 -51 26 -75 96
-70 67 4 71 200 6 338 -29 63 -120 154 -189 188 -117 60 -279 78 -423 48z"/>
<path d="M6010 3085 c-4 -5 -18 -35 -29 -65 -12 -30 -25 -64 -30 -75 -5 -11
-18 -42 -29 -70 -11 -27 -46 -113 -77 -190 -31 -77 -58 -144 -59 -150 -2 -5
-8 -21 -13 -35 -6 -14 -68 -167 -137 -340 -70 -173 -131 -324 -136 -335 -5
-11 -37 -90 -70 -175 -34 -85 -67 -168 -74 -185 -16 -37 -80 -198 -82 -205 0
-3 -6 -17 -12 -32 -6 -15 -34 -84 -62 -155 -28 -70 -55 -137 -60 -148 -5 -11
-19 -44 -30 -72 l-20 -53 79 0 c85 0 89 2 111 60 7 19 19 49 25 65 7 17 22 55
34 85 12 30 26 64 31 75 4 11 25 63 45 115 20 52 43 109 50 125 7 17 19 47 26
68 7 20 15 37 19 38 3 1 242 2 532 3 l527 1 11 -23 c5 -13 10 -29 10 -37 0 -8
5 -15 10 -15 6 0 9 -3 8 -7 -1 -5 4 -21 11 -38 6 -16 21 -55 32 -85 12 -30 28
-69 35 -87 8 -17 14 -34 14 -37 0 -4 7 -23 16 -44 8 -20 16 -39 16 -42 1 -3
21 -52 44 -110 l42 -105 86 -3 86 -3 -20 53 c-11 29 -25 62 -29 73 -8 17 -21
50 -26 65 -1 3 -6 16 -12 30 -6 14 -21 50 -32 80 -12 30 -26 64 -30 75 -5 11
-17 40 -26 65 -9 25 -22 56 -28 70 -6 14 -11 27 -12 30 -1 3 -6 14 -10 25 -21
51 -377 941 -379 950 -2 6 -8 21 -13 35 -6 14 -21 50 -33 80 -12 30 -27 66
-33 80 -6 14 -11 28 -12 33 -2 4 -4 9 -5 12 -1 3 -3 8 -4 13 -1 4 -10 24 -19
46 -9 21 -17 42 -17 46 0 5 -7 21 -15 37 -13 23 -30 64 -40 93 -6 17 -73 187
-89 225 -7 17 -17 41 -22 54 -11 26 -57 36 -74 16z m56 -327 c3 -18 10 -39 15
-48 5 -8 31 -76 59 -150 28 -74 55 -144 59 -155 10 -22 101 -259 133 -345 11
-30 24 -64 28 -75 5 -11 20 -49 33 -85 14 -36 28 -74 32 -85 5 -11 9 -22 10
-25 1 -3 9 -23 19 -45 10 -22 19 -44 20 -50 3 -12 14 -41 27 -73 5 -13 9 -27
9 -31 0 -4 -213 -8 -474 -8 l-475 1 13 25 c7 14 19 44 26 66 7 22 21 58 30 80
10 22 27 65 38 95 23 62 163 420 193 494 11 27 22 56 24 66 2 10 8 26 14 36 5
11 38 91 72 179 34 88 63 163 66 168 8 14 21 -3 29 -35z"/>
<path d="M3879 3051 c-1 -20 0 -40 1 -46 1 -5 2 -16 2 -22 -1 -7 -1 -42 -1
-78 0 -36 0 -72 0 -80 0 -8 0 -44 0 -80 0 -36 0 -71 0 -77 0 -7 0 -42 -1 -78
0 -36 0 -76 0 -90 1 -55 0 -146 -1 -165 0 -11 0 -28 0 -37 2 -39 2 -166 0
-203 0 -11 0 -28 0 -37 2 -39 2 -166 0 -203 0 -11 0 -28 0 -37 2 -39 2 -166 0
-203 0 -11 0 -28 0 -37 2 -39 2 -166 0 -203 0 -11 0 -28 0 -37 2 -39 2 -166 0
-203 0 -11 0 -28 0 -37 2 -39 2 -166 0 -203 -4 -88 -2 -90 83 -93 l75 -3 -1
406 c-1 260 3 410 9 415 6 4 141 8 300 8 287 0 327 2 435 23 174 34 338 147
428 294 20 33 37 62 37 65 1 3 10 30 22 60 75 196 58 496 -38 667 -96 171
-230 271 -434 324 -87 22 -106 23 -502 25 l-413 1 -1 -36z m846 -124 c51 -8
167 -58 215 -92 112 -82 185 -208 206 -361 8 -57 8 -193 -1 -242 -4 -23 -7
-45 -7 -49 0 -5 -10 -36 -23 -69 -69 -183 -201 -288 -415 -330 -42 -8 -660
-12 -661 -4 0 3 -1 265 -2 583 l-2 578 330 -5 c182 -3 344 -7 360 -9z"/>
<path d="M7049 3046 c0 -42 0 -2198 1 -2228 0 -15 45 -16 560 -16 l559 0 0 74
c0 62 -3 74 -17 75 -9 0 -225 1 -479 1 -255 1 -463 4 -464 7 -1 3 -2 483 -3
1066 l-1 1060 -77 1 -78 1 -1 -41z"/>
<path d="M8259 3078 c-1 -17 -1 -2249 0 -2266 1 -10 21 -12 78 -10 l77 3 0
936 c0 882 1 936 18 926 9 -6 16 -14 15 -17 -1 -3 27 -48 63 -100 36 -52 67
-99 69 -104 2 -6 15 -22 28 -35 12 -14 23 -29 23 -32 0 -10 133 -203 142 -207
4 -2 8 -8 8 -12 0 -5 33 -58 74 -117 94 -138 285 -420 339 -499 23 -34 46 -60
53 -57 6 2 55 70 110 151 54 81 104 153 111 160 7 7 13 17 13 21 0 4 8 16 18
27 9 10 23 31 29 47 7 15 17 27 23 27 5 0 10 5 10 10 0 6 12 28 28 49 15 21
33 47 39 57 56 84 135 203 147 219 17 23 131 191 214 315 31 47 60 87 65 88 4
2 7 10 7 18 0 9 3 13 8 11 4 -3 7 -428 6 -946 l-1 -941 78 1 79 1 0 1144 0
1144 -30 0 c-24 0 -35 -8 -57 -42 -15 -24 -30 -45 -33 -48 -3 -3 -29 -41 -59
-85 -236 -350 -308 -455 -334 -487 -16 -21 -25 -38 -20 -38 4 0 3 -4 -3 -8 -6
-4 -26 -29 -44 -57 -19 -27 -37 -51 -42 -53 -4 -2 -8 -8 -8 -12 0 -5 -50 -82
-111 -172 -61 -90 -120 -178 -132 -195 -12 -18 -25 -33 -29 -33 -5 0 -8 -6 -8
-13 0 -8 -11 -27 -25 -43 -14 -16 -28 -37 -31 -46 -8 -28 -21 -22 -51 25 -16
23 -32 47 -36 52 -4 6 -48 69 -97 140 -49 72 -93 135 -99 142 -6 7 -11 15 -11
19 0 3 -12 23 -27 43 -16 20 -32 44 -38 53 -5 9 -50 76 -100 148 -49 72 -94
138 -100 147 -14 24 -21 34 -50 69 -14 18 -25 35 -25 39 0 4 -13 24 -30 45
-16 21 -30 41 -30 44 0 3 -7 14 -15 23 -8 10 -63 90 -123 178 -98 144 -112
160 -141 163 -20 2 -31 -1 -32 -10z"/>
</g>
</svg>
